<?xml version="1.0" encoding="utf-8"?>
<!-- Svg Vector Icons : http://www.onlinewebfonts.com/icon -->
<!DOCTYPE svg PUBLIC "-//W3C//DTD SVG 1.1//EN" "http://www.w3.org/Graphics/SVG/1.1/DTD/svg11.dtd">
<svg version="1.1" xmlns="http://www.w3.org/2000/svg" xmlns:xlink="http://www.w3.org/1999/xlink" x="0px" y="0px" viewBox="0 0 1000 1000" enable-background="new 0 0 1000 1000" xml:space="preserve">
<metadata> Svg Vector Icons : http://www.onlinewebfonts.com/icon </metadata>
<g><g transform="translate(0.000000,511.000000) scale(0.100000,-0.100000)"><path d="M4654.9,4239.9c-9.2-6.9-16.1-85.2-16.1-170.4c0-234.9-13.8-258-237.2-361.6c-241.9-112.9-364-223.4-456.1-407.7c-140.5-285.6-112.9-628.8,69.1-856.9c119.8-154.3,292.5-262.6,661.1-421.5c170.4-73.7,345.5-161.2,391.6-195.8c207.3-158.9,172.8-410-69.1-520.6c-184.3-82.9-564.3-36.9-866.1,103.7c-106,48.4-131.3,53-156.6,27.6c-34.6-34.6-142.8-387-142.8-465.3c0-85.2,205-179.7,541.3-248.8c99-20.7,191.2-50.7,200.4-66.8c9.2-13.8,18.4-99.1,18.4-184.3c0-237.3,9.2-246.5,248.8-246.5c126.7,0,211.9,9.2,230.3,27.6c16.1,16.1,27.6,101.3,27.6,216.5c0,223.4,23,262.6,193.5,317.9c580.5,188.9,803.9,875.3,444.6,1363.6c-142.8,193.5-170.5,211.9-845.4,520.6c-225.7,103.7-322.5,198.1-322.5,317.9c0,117.5,87.5,221.1,214.2,255.7c147.4,39.2,416.9,11.5,638.1-69.1c133.6-48.4,200.4-64.5,218.8-48.4c39.2,32.2,154.3,446.9,135.9,490.6c-18.4,48.4-193.5,119.8-412.3,165.9c-101.4,20.7-198.1,55.3-211.9,76c-18.4,20.7-29.9,101.4-29.9,188.9c0,87.5-11.5,163.5-27.6,179.7C5064.9,4258.3,4682.6,4267.5,4654.9,4239.9z"/><path d="M8709,3127.3c-799.3-41.5-829.2-43.8-882.2-94.4c-110.6-103.7-85.2-158.9,237.3-486l292.5-294.8L6589.8,483L4823.1-1283.8L3747.4-208.1c-594.3,592-1107.9,1087.2-1142.5,1101c-96.7,34.6-191.2,27.6-287.9-20.7c-46.1-25.3-552.8-516-1126.4-1089.5C45.7-1366.7,61.9-1346,121.8-1553.3c41.5-140.5,239.6-329.4,366.2-352.4c195.8-32.2,207.3-23,1133.3,900.7l863.8,861.5l1059.6-1061.9c582.8-582.8,1087.2-1075.7,1121.8-1094.1c73.7-39.2,253.4-43.8,324.8-6.9c27.7,13.8,935.2,907.5,2013.2,1985.5l1964.8,1960.2l294.8-292.5c244.2-241.9,308.7-292.5,363.9-292.5c76,2.3,126.7,34.6,168.2,110.6c29.9,57.6,34.6,122.1,82.9,1140.2c36.8,757.8,32.3,794.7-73.7,843.1C9738.6,3178,9754.7,3178,8709,3127.3z"/><path d="M8123.9,128.2l-767-767V-2219v-1580.2l53-76c101.4-149.7,154.3-161.3,702.5-161.3c361.6,0,509.1,9.2,564.3,32.3c96.8,39.1,195.8,156.6,211.9,251.1c6.9,41.5,9.2,1103.4,6.9,2361l-6.9,2285L8123.9,128.2z"/><path d="M1736.5-1557.9c-423.8-419.2-732.5-709.5-778.6-727.9l-76-29.9l6.9-727.9c6.9-679.5,9.2-732.5,53-806.2c25.3-43.8,76-99,110.6-126.7c62.2-46.1,92.1-48.4,615-48.4c626.5,0,633.4,2.3,732.5,198.1l50.7,103.7l-4.6,1432.7L2439-859.9L1736.5-1557.9z"/><path d="M6009.3-1986.3c-343.2-343.2-665.7-651.9-721-686.4l-99.1-62.2l6.9-534.4c6.9-497.5,9.2-536.7,55.3-596.6c115.2-156.7,122.1-158.9,695.6-165.9c585.1-6.9,631.1,2.3,737.1,156.6l50.7,76v1149.4c0,985.9-4.6,1158.6-34.6,1216.2c-20.7,39.2-43.8,69.1-53,69.1C6638.2-1364.4,6350.2-1645.4,6009.3-1986.3z"/><path d="M3063.2-1484.2c-6.9-29.9-13.8-555.1-13.8-1170.1c0-1260-4.6-1227.7,175.1-1329.1c85.2-50.7,115.2-53,594.3-53c469.9,0,509.1,2.3,589.7,48.4c48.4,27.6,108.3,87.5,135.9,135.9c46.1,80.6,48.4,119.8,48.4,578.2v492.9l-110.6,43.8c-87.5,34.6-232.7,168.1-741.7,674.9c-350.1,345.5-640.4,628.8-649.6,628.8C3084-1433.5,3072.5-1456.5,3063.2-1484.2z"/></g></g>
</svg>