<svg width="16" height="16" viewBox="0 0 16 16" fill="none" xmlns="http://www.w3.org/2000/svg">
<path d="M8.04214 1C4.67581 1 2 3.70827 2 7.11544C2 8.77535 2.60421 10.3479 3.81264 11.4836C3.89896 11.571 7.35161 14.7161 7.43793 14.8034C7.78319 15.0655 8.30109 15.0655 8.56004 14.8034C8.64636 14.7161 12.1853 11.571 12.1853 11.4836C13.3938 10.3479 13.998 8.77535 13.998 7.11544C14.0843 3.70827 11.4085 1 8.04214 1ZM8.04214 8.86271C7.09266 8.86271 6.31582 8.07644 6.31582 7.11544C6.31582 6.15445 7.09266 5.36817 8.04214 5.36817C8.99162 5.36817 9.76847 6.15445 9.76847 7.11544C9.76847 8.07644 8.99162 8.86271 8.04214 8.86271Z" fill="#717171"/>
</svg>
