<svg width="428" height="480" viewBox="0 0 428 480" fill="none" xmlns="http://www.w3.org/2000/svg">
<mask id="mask0_6_321" style="mask-type:alpha" maskUnits="userSpaceOnUse" x="-65" y="0" width="559" height="559">
<circle cx="214.5" cy="279.5" r="279.5" fill="#C4C4C4"/>
</mask>
<g mask="url(#mask0_6_321)">
<rect y="-27" width="428" height="477" fill="#141414"/>
</g>
<mask id="mask1_6_321" style="mask-type:alpha" maskUnits="userSpaceOnUse" x="-65" y="40" width="559" height="559">
<circle cx="214.5" cy="319.5" r="279.5" fill="#C4C4C4"/>
</mask>
<g mask="url(#mask1_6_321)">
<rect y="13" width="428" height="477" fill="#1A1A1A"/>
</g>
<g style="mix-blend-mode:multiply">
<path d="M27.2177 450.786H444.771C445.627 450.786 446.449 450.445 447.054 449.84C447.66 449.234 448 448.413 448 447.557V447.557C448 446.7 447.66 445.878 447.055 445.271C446.449 444.665 445.628 444.323 444.771 444.322H27.2177C26.3608 444.323 25.5395 444.665 24.9341 445.271C24.3287 445.878 23.9887 446.7 23.9887 447.557V447.557C23.9887 448.413 24.3289 449.234 24.9344 449.84C25.54 450.445 26.3613 450.786 27.2177 450.786V450.786Z" fill="#808080"/>
</g>
<path d="M407.526 447.865H390.952C359.091 447.865 359.091 388.183 390.952 388.183H407.526C441.753 388.183 441.753 447.865 407.526 447.865Z" fill="black"/>
<path d="M193.852 447.865H177.278C145.411 447.865 145.411 388.183 177.278 388.183H193.852C228.079 388.183 228.079 447.865 193.852 447.865Z" fill="black"/>
<path d="M42.9684 383.091H413.144V416.81C413.144 420.876 411.528 424.776 408.653 427.652C405.777 430.528 401.877 432.143 397.81 432.143H75.6528C65.6926 432.143 56.1323 428.224 49.0378 421.233L42.9684 415.261V383.091Z" fill="black"/>
<path d="M103.176 447.865H86.6028C54.7357 447.865 54.7357 388.183 86.6028 388.183H103.176C137.41 388.183 137.41 447.865 103.176 447.865Z" fill="black"/>
<path d="M88.7231 428.44C93.3282 428.44 97.0614 423.778 97.0614 418.027C97.0614 412.276 93.3282 407.614 88.7231 407.614C84.118 407.614 80.3849 412.276 80.3849 418.027C80.3849 423.778 84.118 428.44 88.7231 428.44Z" fill="#CCCCCC"/>
<path d="M88.7232 427.828C93.0568 427.828 96.5699 423.44 96.5699 418.027C96.5699 412.614 93.0568 408.226 88.7232 408.226C84.3895 408.226 80.8764 412.614 80.8764 418.027C80.8764 423.44 84.3895 427.828 88.7232 427.828Z" fill="#999999"/>
<path d="M88.1745 409.489C88.197 409.594 88.2487 409.69 88.3235 409.767C88.3984 409.844 88.4934 409.898 88.5977 409.924C88.7019 409.949 88.8113 409.945 88.9132 409.911C89.015 409.877 89.1053 409.816 89.1737 409.733C89.2421 409.65 89.2858 409.55 89.2998 409.443C89.3138 409.337 89.2976 409.229 89.2529 409.131C89.2083 409.033 89.1371 408.95 89.0474 408.891C88.9577 408.832 88.8533 408.8 88.746 408.797C88.5785 408.813 88.4242 408.895 88.317 409.025C88.2098 409.154 88.1585 409.321 88.1745 409.489V409.489Z" fill="#333333"/>
<path d="M90.8319 409.872C90.7704 410.033 90.7663 410.211 90.8204 410.376C90.8745 410.54 90.9835 410.681 91.1291 410.775C91.2005 410.807 91.2783 410.823 91.3567 410.821C91.4351 410.82 91.5121 410.8 91.5819 410.764C91.6517 410.729 91.7125 410.678 91.7598 410.615C91.8071 410.552 91.8396 410.48 91.8549 410.403C91.9149 410.241 91.9175 410.062 91.8624 409.898C91.8074 409.734 91.6979 409.594 91.552 409.5C91.481 409.469 91.4037 409.453 91.326 409.456C91.2483 409.458 91.1721 409.478 91.1031 409.513C91.034 409.549 90.9738 409.6 90.9268 409.662C90.8799 409.724 90.8475 409.795 90.8319 409.872V409.872Z" fill="#333333"/>
<path d="M93.558 412.678C93.8642 412.678 94.1124 412.368 94.1124 411.986C94.1124 411.604 93.8642 411.295 93.558 411.295C93.2519 411.295 93.0037 411.604 93.0037 411.986C93.0037 412.368 93.2519 412.678 93.558 412.678Z" fill="#333333"/>
<path d="M94.8268 414.118C94.6835 414.214 94.5765 414.354 94.5226 414.518C94.4687 414.682 94.4712 414.859 94.5296 415.021C94.5444 415.097 94.5763 415.17 94.623 415.232C94.6696 415.295 94.7297 415.346 94.7989 415.383C94.8681 415.419 94.9445 415.439 95.0225 415.442C95.1006 415.444 95.1782 415.429 95.2497 415.398C95.3947 415.304 95.5036 415.163 95.5586 414.999C95.6136 414.835 95.6115 414.658 95.5526 414.495C95.537 414.418 95.5044 414.346 95.4572 414.283C95.41 414.22 95.3494 414.169 95.2798 414.133C95.2102 414.097 95.1334 414.077 95.055 414.074C94.9766 414.071 94.8986 414.086 94.8268 414.118Z" fill="#333333"/>
<path d="M95.5584 417.336C95.4163 417.309 95.2693 417.326 95.1375 417.386C95.0057 417.445 94.8955 417.544 94.8219 417.668C94.7482 417.793 94.7148 417.937 94.7261 418.081C94.7374 418.225 94.7929 418.363 94.8851 418.474C94.9772 418.585 95.1015 418.666 95.2409 418.704C95.3804 418.742 95.5283 418.737 95.6644 418.688C95.8005 418.639 95.9183 418.549 96.0016 418.431C96.0849 418.313 96.1297 418.172 96.1299 418.027C96.1458 417.86 96.0945 417.693 95.9873 417.563C95.8802 417.433 95.7258 417.352 95.5584 417.336V417.336Z" fill="#333333"/>
<path d="M95.2269 420.65C95.1554 420.619 95.0777 420.604 94.9997 420.607C94.9217 420.609 94.8452 420.629 94.776 420.666C94.7069 420.702 94.6467 420.753 94.6001 420.816C94.5535 420.878 94.5216 420.951 94.5068 421.027C94.4473 421.189 94.4443 421.367 94.4983 421.531C94.5522 421.695 94.6599 421.835 94.8039 421.93C94.8758 421.962 94.9538 421.977 95.0322 421.974C95.1105 421.971 95.1873 421.951 95.2569 421.915C95.3265 421.879 95.3871 421.828 95.4343 421.765C95.4816 421.702 95.5141 421.63 95.5298 421.553C95.5886 421.391 95.5907 421.213 95.5358 421.049C95.4808 420.885 95.3719 420.744 95.2269 420.65V420.65Z" fill="#333333"/>
<path d="M93.558 424.754C93.8642 424.754 94.1124 424.444 94.1124 424.062C94.1124 423.68 93.8642 423.371 93.558 423.371C93.2519 423.371 93.0037 423.68 93.0037 424.062C93.0037 424.444 93.2519 424.754 93.558 424.754Z" fill="#333333"/>
<path d="M91.8549 425.645C91.8396 425.568 91.8071 425.496 91.7598 425.433C91.7125 425.371 91.6517 425.32 91.5819 425.284C91.5121 425.248 91.4351 425.229 91.3567 425.227C91.2783 425.225 91.2005 425.241 91.1291 425.274C90.9835 425.367 90.8745 425.508 90.8204 425.672C90.7663 425.837 90.7704 426.015 90.8319 426.177C90.8475 426.253 90.8799 426.324 90.9268 426.386C90.9738 426.448 91.034 426.499 91.1031 426.535C91.1721 426.57 91.2483 426.59 91.326 426.592C91.4037 426.595 91.481 426.58 91.552 426.548C91.6979 426.455 91.8074 426.314 91.8624 426.15C91.9175 425.986 91.9149 425.808 91.8549 425.645V425.645Z" fill="#333333"/>
<path d="M89.2775 426.56C89.2549 426.455 89.2033 426.358 89.1284 426.281C89.0536 426.204 88.9586 426.15 88.8543 426.125C88.75 426.099 88.6407 426.103 88.5388 426.137C88.4369 426.171 88.3466 426.233 88.2782 426.316C88.2098 426.398 88.1662 426.499 88.1521 426.605C88.1381 426.712 88.1544 426.82 88.199 426.917C88.2437 427.015 88.3149 427.098 88.4045 427.157C88.4942 427.216 88.5987 427.249 88.706 427.251C88.8735 427.235 89.0278 427.153 89.135 427.024C89.2421 426.894 89.2934 426.727 89.2775 426.56V426.56Z" fill="#333333"/>
<path d="M86.62 426.177C86.6815 426.015 86.6856 425.837 86.6315 425.672C86.5774 425.508 86.4684 425.367 86.3228 425.274C86.2514 425.241 86.1737 425.225 86.0953 425.227C86.0169 425.229 85.9399 425.248 85.8701 425.284C85.8003 425.32 85.7394 425.371 85.6921 425.433C85.6448 425.496 85.6123 425.568 85.597 425.645C85.537 425.808 85.5344 425.986 85.5895 426.15C85.6446 426.314 85.7541 426.455 85.8999 426.548C85.971 426.58 86.0482 426.595 86.1259 426.592C86.2036 426.59 86.2798 426.57 86.3489 426.535C86.4179 426.499 86.4782 426.448 86.5251 426.386C86.572 426.324 86.6044 426.253 86.62 426.177V426.177Z" fill="#333333"/>
<path d="M84.2825 424.548C84.3887 424.407 84.4461 424.235 84.4461 424.059C84.4461 423.883 84.3887 423.711 84.2825 423.57C84.2382 423.508 84.1795 423.457 84.1114 423.422C84.0433 423.387 83.9677 423.368 83.8911 423.368C83.8144 423.368 83.7389 423.387 83.6707 423.422C83.6026 423.457 83.5439 423.508 83.4996 423.57C83.3943 423.712 83.3374 423.883 83.3374 424.059C83.3374 424.235 83.3943 424.407 83.4996 424.548C83.5439 424.61 83.6026 424.661 83.6707 424.696C83.7389 424.732 83.8144 424.75 83.8911 424.75C83.9677 424.75 84.0433 424.732 84.1114 424.696C84.1795 424.661 84.2382 424.61 84.2825 424.548V424.548Z" fill="#333333"/>
<path d="M82.6195 421.953C82.7653 421.86 82.8748 421.719 82.9299 421.555C82.9849 421.391 82.9823 421.213 82.9223 421.05C82.9067 420.973 82.8742 420.901 82.8269 420.838C82.7797 420.776 82.7191 420.725 82.6495 420.688C82.5799 420.652 82.5031 420.632 82.4248 420.629C82.3464 420.627 82.2684 420.642 82.1965 420.673C82.0533 420.769 81.9462 420.91 81.8924 421.073C81.8385 421.237 81.841 421.414 81.8993 421.576C81.9142 421.653 81.9461 421.725 81.9927 421.788C82.0393 421.85 82.0995 421.902 82.1686 421.938C82.2378 421.974 82.3142 421.994 82.3923 421.997C82.4703 422 82.548 421.985 82.6195 421.953V421.953Z" fill="#333333"/>
<path d="M81.8879 418.713C82.0316 418.741 82.1805 418.724 82.3142 418.665C82.4479 418.605 82.5598 418.505 82.6345 418.379C82.7092 418.253 82.7431 418.107 82.7314 417.961C82.7198 417.815 82.6632 417.676 82.5694 417.564C82.4757 417.451 82.3494 417.371 82.2079 417.333C82.0664 417.295 81.9167 417.302 81.7793 417.353C81.642 417.404 81.5237 417.496 81.4408 417.616C81.3579 417.737 81.3145 417.881 81.3164 418.027C81.3086 418.11 81.3171 418.193 81.3417 418.272C81.3662 418.352 81.4062 418.425 81.4593 418.489C81.5124 418.553 81.5777 418.605 81.6512 418.644C81.7248 418.682 81.8052 418.706 81.8879 418.713Z" fill="#333333"/>
<path d="M82.1965 415.398C82.2684 415.429 82.3464 415.444 82.4248 415.442C82.5031 415.439 82.5799 415.419 82.6495 415.383C82.7191 415.347 82.7797 415.295 82.8269 415.233C82.8742 415.17 82.9067 415.098 82.9223 415.021C82.9812 414.858 82.9833 414.68 82.9283 414.517C82.8734 414.353 82.7645 414.212 82.6195 414.118C82.548 414.086 82.4703 414.071 82.3923 414.074C82.3142 414.077 82.2378 414.097 82.1686 414.133C82.0995 414.169 82.0393 414.221 81.9927 414.283C81.9461 414.346 81.9142 414.418 81.8993 414.495C81.841 414.657 81.8385 414.834 81.8924 414.998C81.9462 415.161 82.0533 415.302 82.1965 415.398V415.398Z" fill="#333333"/>
<path d="M83.4996 412.478C83.5439 412.54 83.6026 412.591 83.6707 412.626C83.7389 412.662 83.8144 412.68 83.8911 412.68C83.9677 412.68 84.0433 412.662 84.1114 412.626C84.1795 412.591 84.2382 412.54 84.2825 412.478C84.3887 412.337 84.4461 412.165 84.4461 411.989C84.4461 411.813 84.3887 411.641 84.2825 411.5C84.2382 411.438 84.1795 411.387 84.1114 411.352C84.0433 411.317 83.9677 411.298 83.8911 411.298C83.8144 411.298 83.7389 411.317 83.6707 411.352C83.6026 411.387 83.5439 411.438 83.4996 411.5C83.3943 411.642 83.3374 411.813 83.3374 411.989C83.3374 412.165 83.3943 412.337 83.4996 412.478V412.478Z" fill="#333333"/>
<path d="M85.597 410.403C85.6123 410.48 85.6448 410.552 85.6921 410.615C85.7394 410.678 85.8003 410.729 85.8701 410.764C85.9399 410.8 86.0169 410.82 86.0953 410.821C86.1737 410.823 86.2514 410.807 86.3228 410.775C86.4684 410.681 86.5774 410.54 86.6315 410.376C86.6856 410.211 86.6815 410.033 86.62 409.872C86.6044 409.795 86.572 409.724 86.5251 409.662C86.4782 409.6 86.4179 409.549 86.3489 409.513C86.2798 409.478 86.2036 409.458 86.1259 409.456C86.0482 409.453 85.971 409.469 85.8999 409.5C85.7541 409.594 85.6446 409.734 85.5895 409.898C85.5344 410.062 85.537 410.241 85.597 410.403V410.403Z" fill="#333333"/>
<path d="M62.7025 418.027C62.7025 434.503 73.4011 447.865 86.6028 447.865C99.8046 447.865 110.497 434.503 110.497 418.027C110.497 401.55 99.7989 388.183 86.6028 388.183C73.4068 388.183 62.7025 401.545 62.7025 418.027ZM67.5774 418.027C67.5774 404.882 76.0986 394.275 86.6028 394.275C97.1071 394.275 105.623 404.905 105.623 418.027C105.623 431.149 97.1071 441.773 86.6028 441.773C76.0986 441.773 67.5774 431.143 67.5774 418.027Z" fill="black"/>
<path d="M67.5774 418.027C67.5774 431.143 76.0986 441.773 86.6029 441.773C97.1071 441.773 105.623 431.143 105.623 418.027C105.623 404.911 97.1071 394.275 86.6029 394.275C76.0986 394.275 67.5774 404.905 67.5774 418.027ZM71.498 418.027C71.498 407.608 78.2589 399.167 86.6029 399.167C94.9468 399.167 101.702 407.608 101.702 418.027C101.702 428.445 94.9411 436.887 86.6029 436.887C78.2646 436.887 71.498 428.44 71.498 418.027V418.027Z" fill="#828282"/>
<path d="M67.5774 418.027C67.5774 431.143 76.0986 441.773 86.6029 441.773C97.1071 441.773 105.623 431.143 105.623 418.027C105.623 404.911 97.1071 394.275 86.6029 394.275C76.0986 394.275 67.5774 404.905 67.5774 418.027ZM69.7892 418.027C69.7892 406.431 77.3159 397.03 86.6029 397.03C95.8898 397.03 103.411 406.431 103.411 418.027C103.411 429.623 95.8841 439.018 86.6029 439.018C77.3216 439.018 69.7892 429.617 69.7892 418.027Z" fill="#DEDEDE"/>
<path d="M67.5774 418.027C67.5774 431.143 76.0929 441.773 86.6029 441.773C97.1128 441.773 105.623 431.143 105.623 418.027C105.623 404.911 97.1071 394.275 86.6029 394.275C76.0986 394.275 67.5774 404.905 67.5774 418.027ZM84.1511 410.5C84.2254 411.918 83.0081 413.038 81.9337 412.512L70.9207 407.094C70.7507 406.983 70.6302 406.81 70.5844 406.612C70.5386 406.414 70.5711 406.206 70.675 406.031C71.9455 403.518 73.6611 401.257 75.7385 399.356C77.7333 397.5 80.1174 396.114 82.7166 395.298C83.0824 395.19 83.4196 395.481 83.4424 395.921L84.1511 410.5ZM102.439 407.443L91.5807 412.792C90.5234 413.312 89.2946 412.22 89.3632 410.78L90.0833 396.024C90.0833 395.572 90.4434 395.281 90.8148 395.401C93.2845 396.236 95.5496 397.584 97.4615 399.356C99.6386 401.35 101.42 403.737 102.714 406.391C102.812 406.566 102.84 406.772 102.792 406.967C102.744 407.163 102.624 407.332 102.456 407.443H102.439ZM99.5417 433.583L92.1122 422.313C91.3864 421.216 91.855 419.416 92.958 419.056L104.422 415.358C104.771 415.244 105.097 415.564 105.12 416.038C105.266 419.117 104.944 422.2 104.165 425.182C103.412 428.179 102.148 431.023 100.428 433.589C100.384 433.666 100.321 433.73 100.244 433.774C100.167 433.819 100.08 433.842 99.9915 433.841C99.903 433.841 99.8162 433.817 99.7401 433.771C99.664 433.726 99.6015 433.661 99.5589 433.583H99.5417ZM78.7389 438.224L85.0255 425.908C85.1422 425.641 85.3341 425.415 85.5777 425.255C85.8213 425.096 86.1061 425.011 86.3971 425.011C86.6882 425.011 86.9729 425.096 87.2165 425.255C87.4601 425.415 87.652 425.641 87.7687 425.908L94.1296 438.378C94.2234 438.557 94.2448 438.764 94.1895 438.958C94.1341 439.152 94.0062 439.317 93.8324 439.418C91.5253 440.554 88.9835 441.131 86.4123 441.103C83.8411 441.075 81.3124 440.443 79.0304 439.258C78.8609 439.154 78.7379 438.988 78.6869 438.796C78.6358 438.603 78.6606 438.399 78.7561 438.224H78.7389ZM69.0233 425.154C68.2149 422.041 67.9006 418.82 68.0918 415.609C68.0918 415.147 68.4461 414.838 68.789 414.952L80.1163 418.604C81.2193 418.958 81.6879 420.764 80.9621 421.862L73.4297 433.292C73.3836 433.37 73.3171 433.435 73.2373 433.478C73.1575 433.522 73.0674 433.543 72.9765 433.54C72.8856 433.536 72.7973 433.508 72.7211 433.458C72.6449 433.409 72.5837 433.339 72.5438 433.258C70.9357 430.767 69.7465 428.029 69.0233 425.154V425.154Z" fill="#808080"/>
<path d="M67.5774 418.027C67.5774 431.143 76.0929 441.773 86.6029 441.773C97.1128 441.773 105.623 431.143 105.623 418.027C105.623 404.911 97.1071 394.275 86.6029 394.275C76.0986 394.275 67.5774 404.905 67.5774 418.027ZM82.5966 413.649L71.0408 407.3C70.8622 407.177 70.734 406.993 70.6794 406.784C70.6248 406.574 70.6476 406.351 70.7436 406.157C71.9542 403.589 73.6504 401.279 75.7385 399.356C77.7383 397.496 80.1607 396.15 82.7966 395.435C83.1738 395.338 83.5281 395.67 83.5624 396.138L84.8197 411.637C84.9398 413.146 83.711 414.261 82.5966 413.649V413.649ZM102.331 407.666L90.9006 413.952C89.7918 414.569 88.5631 413.449 88.6831 411.94L89.9633 396.235C89.9976 395.755 90.3634 395.43 90.7405 395.532C93.2455 396.275 95.5455 397.585 97.4615 399.362C99.6609 401.371 101.428 403.808 102.656 406.523C102.752 406.72 102.772 406.945 102.712 407.156C102.652 407.367 102.516 407.548 102.331 407.666ZM99.3588 433.515L91.0492 421.896C90.2433 420.753 90.712 418.958 91.9007 418.633L104.24 415.289C104.617 415.192 104.977 415.524 105.017 415.998C105.233 419.071 104.949 422.16 104.177 425.142C103.423 428.144 102.113 430.979 100.313 433.498C100.262 433.577 100.191 433.642 100.108 433.687C100.025 433.733 99.9322 433.757 99.8376 433.757C99.743 433.758 99.6497 433.735 99.5662 433.691C99.4826 433.646 99.4114 433.582 99.3588 433.503V433.515ZM78.7847 437.972L85.0712 424.513C85.17 424.228 85.3552 423.981 85.601 423.806C85.8468 423.631 86.1411 423.537 86.4428 423.537C86.7446 423.537 87.0388 423.631 87.2846 423.806C87.5305 423.981 87.7156 424.228 87.8144 424.513L94.141 438.127C94.2382 438.321 94.2616 438.544 94.207 438.754C94.1523 438.964 94.0233 439.147 93.8438 439.27C91.5667 440.506 89.0113 441.139 86.4205 441.109C83.8297 441.079 81.2897 440.387 79.0418 439.098C78.8643 438.974 78.7376 438.79 78.6851 438.58C78.6325 438.37 78.6578 438.148 78.7561 437.955L78.7847 437.972ZM69.0691 425.165C68.2589 422.035 67.9883 418.79 68.269 415.569C68.309 415.101 68.669 414.775 69.0405 414.878L81.2307 418.181C82.4194 418.501 82.8881 420.307 82.0765 421.439L73.624 433.189C73.5722 433.269 73.5011 433.335 73.4172 433.381C73.3333 433.426 73.2394 433.45 73.1439 433.45C73.0484 433.45 72.9544 433.426 72.8706 433.381C72.7867 433.335 72.7156 433.269 72.6638 433.189C70.9838 430.747 69.7511 428.027 69.0233 425.154L69.0691 425.165Z" fill="url(#paint0_radial_6_321)"/>
<path d="M84.1453 418.027C84.1453 419.742 85.2483 421.09 86.6028 421.09C87.9573 421.09 89.0546 419.719 89.0546 418.027C89.0546 416.335 87.9573 414.958 86.6028 414.958C85.2483 414.958 84.1453 416.33 84.1453 418.027Z" fill="#E6E6E6"/>
<path d="M85.9856 410.803H87.2201L87.8316 412.135L87.2201 413.472H85.9856L85.3684 412.135L85.9856 410.803Z" fill="#333333"/>
<path d="M86.2371 411.346H86.9686L87.3344 412.135L86.9686 412.929H86.2371L85.8713 412.135L86.2371 411.346Z" fill="black"/>
<path d="M91.9121 415.061L92.295 416.524L91.4664 417.667L90.2605 417.347L89.8776 415.884L90.7063 414.741L91.9121 415.061Z" fill="#333333"/>
<path d="M91.5749 415.524L91.8035 416.393L91.312 417.073L90.5976 416.884L90.369 416.015L90.8605 415.335L91.5749 415.524Z" fill="black"/>
<path d="M90.5006 423.416L89.5004 424.319L88.3746 423.696L88.2431 422.165L89.2432 421.256L90.3691 421.885L90.5006 423.416Z" fill="#333333"/>
<path d="M90.0433 423.159L89.4489 423.696L88.7803 423.325L88.706 422.416L89.2946 421.879L89.9633 422.25L90.0433 423.159Z" fill="black"/>
<path d="M83.6996 424.319L82.7052 423.416L82.8309 421.885L83.9568 421.256L84.9569 422.165L84.8255 423.696L83.6996 424.319Z" fill="#333333"/>
<path d="M83.751 423.696L83.1566 423.159L83.2366 422.25L83.9053 421.879L84.4997 422.416L84.4197 423.325L83.751 423.696Z" fill="black"/>
<path d="M80.9106 416.524L81.2935 415.061L82.4994 414.741L83.3224 415.884L82.9395 417.347L81.7336 417.667L80.9106 416.524Z" fill="#333333"/>
<path d="M81.4022 416.393L81.625 415.524L82.3451 415.335L82.8309 416.015L82.608 416.884L81.8879 417.073L81.4022 416.393Z" fill="black"/>
<path d="M316.851 447.865H300.277C268.416 447.865 268.416 388.183 300.277 388.183H316.851C351.078 388.183 351.078 447.865 316.851 447.865Z" fill="black"/>
<path d="M302.398 428.44C307.003 428.44 310.736 423.778 310.736 418.027C310.736 412.276 307.003 407.614 302.398 407.614C297.792 407.614 294.059 412.276 294.059 418.027C294.059 423.778 297.792 428.44 302.398 428.44Z" fill="#CCCCCC"/>
<path d="M302.398 427.828C306.731 427.828 310.244 423.44 310.244 418.027C310.244 412.614 306.731 408.226 302.398 408.226C298.064 408.226 294.551 412.614 294.551 418.027C294.551 423.44 298.064 427.828 302.398 427.828Z" fill="#999999"/>
<path d="M301.843 409.489C301.866 409.594 301.917 409.69 301.992 409.767C302.067 409.844 302.162 409.898 302.266 409.924C302.371 409.949 302.48 409.945 302.582 409.911C302.684 409.877 302.774 409.816 302.842 409.733C302.911 409.65 302.955 409.55 302.969 409.443C302.983 409.337 302.966 409.229 302.922 409.131C302.877 409.033 302.806 408.95 302.716 408.891C302.626 408.832 302.522 408.8 302.415 408.797C302.247 408.813 302.093 408.895 301.986 409.025C301.879 409.154 301.827 409.321 301.843 409.489V409.489Z" fill="#333333"/>
<path d="M304.501 409.871C304.441 410.034 304.438 410.212 304.493 410.376C304.548 410.541 304.658 410.681 304.804 410.774C304.875 410.807 304.952 410.823 305.03 410.821C305.108 410.82 305.185 410.8 305.254 410.764C305.324 410.728 305.384 410.677 305.431 410.615C305.477 410.552 305.509 410.48 305.524 410.403C305.584 410.241 305.588 410.063 305.534 409.899C305.48 409.735 305.371 409.594 305.227 409.5C305.155 409.469 305.078 409.453 304.999 409.456C304.921 409.458 304.845 409.478 304.775 409.513C304.706 409.549 304.645 409.599 304.598 409.661C304.55 409.723 304.517 409.795 304.501 409.871Z" fill="#333333"/>
<path d="M306.838 411.5C306.735 411.643 306.68 411.814 306.68 411.989C306.68 412.165 306.735 412.336 306.838 412.478C306.883 412.54 306.941 412.591 307.009 412.626C307.077 412.662 307.153 412.68 307.23 412.68C307.306 412.68 307.382 412.662 307.45 412.626C307.518 412.591 307.577 412.54 307.621 412.478C307.726 412.337 307.783 412.165 307.783 411.989C307.783 411.813 307.726 411.642 307.621 411.5C307.577 411.438 307.518 411.387 307.45 411.352C307.382 411.317 307.306 411.298 307.23 411.298C307.153 411.298 307.077 411.317 307.009 411.352C306.941 411.387 306.883 411.438 306.838 411.5V411.5Z" fill="#333333"/>
<path d="M308.501 414.118C308.356 414.212 308.248 414.353 308.194 414.517C308.14 414.681 308.144 414.859 308.204 415.021C308.219 415.097 308.251 415.17 308.297 415.232C308.344 415.295 308.404 415.346 308.473 415.383C308.543 415.419 308.619 415.439 308.697 415.442C308.775 415.444 308.853 415.429 308.924 415.398C309.069 415.304 309.178 415.163 309.233 414.999C309.288 414.835 309.286 414.658 309.227 414.495C309.211 414.418 309.179 414.346 309.132 414.283C309.084 414.22 309.024 414.169 308.954 414.133C308.885 414.097 308.808 414.077 308.73 414.074C308.651 414.071 308.573 414.086 308.501 414.118V414.118Z" fill="#333333"/>
<path d="M309.233 417.336C309.091 417.309 308.944 417.326 308.812 417.386C308.68 417.445 308.57 417.544 308.496 417.668C308.423 417.793 308.389 417.937 308.401 418.081C308.412 418.225 308.467 418.363 308.559 418.474C308.652 418.585 308.776 418.666 308.915 418.704C309.055 418.742 309.203 418.737 309.339 418.688C309.475 418.639 309.593 418.549 309.676 418.431C309.759 418.313 309.804 418.172 309.804 418.027C309.82 417.86 309.769 417.693 309.662 417.563C309.555 417.433 309.4 417.352 309.233 417.336V417.336Z" fill="#333333"/>
<path d="M308.924 420.65C308.853 420.619 308.775 420.604 308.697 420.607C308.619 420.609 308.543 420.629 308.473 420.666C308.404 420.702 308.344 420.753 308.297 420.816C308.251 420.878 308.219 420.951 308.204 421.027C308.144 421.189 308.14 421.367 308.194 421.531C308.248 421.695 308.356 421.836 308.501 421.93C308.573 421.962 308.651 421.977 308.73 421.974C308.808 421.971 308.885 421.951 308.954 421.915C309.024 421.879 309.084 421.828 309.132 421.765C309.179 421.702 309.211 421.63 309.227 421.553C309.286 421.391 309.288 421.213 309.233 421.049C309.178 420.885 309.069 420.744 308.924 420.65V420.65Z" fill="#333333"/>
<path d="M307.621 423.57C307.577 423.508 307.518 423.457 307.45 423.422C307.382 423.387 307.306 423.368 307.23 423.368C307.153 423.368 307.077 423.387 307.009 423.422C306.941 423.457 306.883 423.508 306.838 423.57C306.735 423.713 306.68 423.884 306.68 424.059C306.68 424.235 306.735 424.406 306.838 424.548C306.883 424.61 306.941 424.661 307.009 424.696C307.077 424.732 307.153 424.75 307.23 424.75C307.306 424.75 307.382 424.732 307.45 424.696C307.518 424.661 307.577 424.61 307.621 424.548C307.727 424.407 307.785 424.235 307.785 424.059C307.785 423.883 307.727 423.711 307.621 423.57V423.57Z" fill="#333333"/>
<path d="M305.541 425.645C305.526 425.568 305.494 425.496 305.448 425.434C305.401 425.371 305.341 425.32 305.271 425.284C305.202 425.248 305.125 425.229 305.047 425.227C304.969 425.225 304.892 425.241 304.821 425.274C304.675 425.367 304.565 425.508 304.51 425.672C304.455 425.836 304.458 426.014 304.518 426.177C304.534 426.253 304.567 426.325 304.615 426.387C304.662 426.449 304.723 426.499 304.793 426.535C304.862 426.57 304.939 426.59 305.017 426.592C305.095 426.595 305.172 426.58 305.244 426.548C305.389 426.455 305.498 426.314 305.552 426.149C305.607 425.985 305.602 425.807 305.541 425.645Z" fill="#333333"/>
<path d="M302.952 426.56C302.929 426.455 302.878 426.358 302.803 426.281C302.728 426.204 302.633 426.15 302.529 426.125C302.424 426.099 302.315 426.103 302.213 426.137C302.111 426.171 302.021 426.233 301.953 426.316C301.884 426.398 301.841 426.499 301.827 426.605C301.813 426.712 301.829 426.82 301.873 426.917C301.918 427.015 301.989 427.098 302.079 427.157C302.169 427.216 302.273 427.249 302.38 427.251C302.548 427.235 302.702 427.153 302.809 427.024C302.917 426.894 302.968 426.727 302.952 426.56V426.56Z" fill="#333333"/>
<path d="M300.294 426.177C300.354 426.015 300.357 425.837 300.303 425.673C300.249 425.51 300.141 425.369 299.997 425.274C299.926 425.241 299.848 425.225 299.77 425.227C299.691 425.229 299.614 425.248 299.545 425.284C299.475 425.32 299.414 425.371 299.367 425.433C299.319 425.496 299.287 425.568 299.271 425.645C299.212 425.807 299.209 425.984 299.263 426.148C299.317 426.312 299.425 426.453 299.569 426.548C299.64 426.58 299.718 426.595 299.796 426.592C299.874 426.59 299.95 426.57 300.02 426.535C300.089 426.499 300.15 426.449 300.198 426.387C300.245 426.325 300.278 426.253 300.294 426.177Z" fill="#333333"/>
<path d="M297.957 424.548C298.063 424.407 298.121 424.235 298.121 424.059C298.121 423.883 298.063 423.711 297.957 423.57C297.913 423.508 297.854 423.457 297.786 423.422C297.718 423.387 297.642 423.368 297.565 423.368C297.489 423.368 297.413 423.387 297.345 423.422C297.277 423.457 297.218 423.508 297.174 423.57C297.069 423.712 297.012 423.883 297.012 424.059C297.012 424.235 297.069 424.407 297.174 424.548C297.218 424.61 297.277 424.661 297.345 424.696C297.413 424.732 297.489 424.75 297.565 424.75C297.642 424.75 297.718 424.732 297.786 424.696C297.854 424.661 297.913 424.61 297.957 424.548V424.548Z" fill="#333333"/>
<path d="M296.294 421.953C296.44 421.86 296.549 421.719 296.604 421.555C296.659 421.391 296.657 421.213 296.597 421.05C296.581 420.973 296.549 420.901 296.501 420.838C296.454 420.776 296.394 420.725 296.324 420.688C296.254 420.652 296.178 420.632 296.099 420.629C296.021 420.627 295.943 420.642 295.871 420.673C295.726 420.767 295.618 420.908 295.564 421.072C295.51 421.237 295.513 421.414 295.574 421.576C295.589 421.653 295.621 421.725 295.667 421.788C295.714 421.85 295.774 421.902 295.843 421.938C295.912 421.974 295.989 421.994 296.067 421.997C296.145 422 296.222 421.985 296.294 421.953V421.953Z" fill="#333333"/>
<path d="M295.562 418.713C295.705 418.74 295.852 418.722 295.984 418.663C296.116 418.603 296.226 418.504 296.3 418.379C296.373 418.254 296.406 418.11 296.394 417.965C296.383 417.821 296.327 417.684 296.234 417.572C296.141 417.461 296.016 417.381 295.876 417.343C295.736 417.306 295.588 417.312 295.452 417.362C295.316 417.412 295.199 417.503 295.116 417.622C295.034 417.741 294.99 417.882 294.991 418.027C294.983 418.11 294.992 418.193 295.016 418.272C295.041 418.352 295.081 418.425 295.134 418.489C295.187 418.553 295.252 418.605 295.326 418.644C295.399 418.682 295.48 418.706 295.562 418.713V418.713Z" fill="#333333"/>
<path d="M295.871 415.398C295.943 415.429 296.021 415.444 296.099 415.442C296.178 415.439 296.254 415.419 296.324 415.383C296.394 415.347 296.454 415.295 296.501 415.233C296.549 415.17 296.581 415.098 296.597 415.021C296.656 414.858 296.658 414.68 296.603 414.517C296.548 414.353 296.439 414.212 296.294 414.118C296.222 414.086 296.145 414.071 296.067 414.074C295.989 414.077 295.912 414.097 295.843 414.133C295.774 414.169 295.714 414.221 295.667 414.283C295.621 414.346 295.589 414.418 295.574 414.495C295.513 414.657 295.51 414.835 295.564 414.999C295.618 415.163 295.726 415.304 295.871 415.398Z" fill="#333333"/>
<path d="M297.174 412.478C297.218 412.54 297.277 412.591 297.345 412.626C297.413 412.662 297.489 412.68 297.565 412.68C297.642 412.68 297.718 412.662 297.786 412.626C297.854 412.591 297.913 412.54 297.957 412.478C298.062 412.337 298.119 412.165 298.119 411.989C298.119 411.813 298.062 411.642 297.957 411.5C297.913 411.438 297.854 411.387 297.786 411.352C297.718 411.317 297.642 411.298 297.565 411.298C297.489 411.298 297.413 411.317 297.345 411.352C297.277 411.387 297.218 411.438 297.174 411.5C297.068 411.641 297.01 411.813 297.01 411.989C297.01 412.165 297.068 412.337 297.174 412.478V412.478Z" fill="#333333"/>
<path d="M299.254 410.403C299.27 410.48 299.302 410.552 299.349 410.615C299.397 410.677 299.458 410.729 299.527 410.764C299.597 410.8 299.674 410.819 299.753 410.821C299.831 410.823 299.909 410.807 299.98 410.774C300.124 410.679 300.232 410.539 300.286 410.375C300.34 410.211 300.337 410.033 300.277 409.871C300.261 409.795 300.228 409.723 300.18 409.661C300.133 409.599 300.072 409.549 300.003 409.513C299.933 409.478 299.857 409.458 299.779 409.456C299.701 409.453 299.623 409.469 299.551 409.5C299.407 409.595 299.3 409.736 299.246 409.9C299.192 410.064 299.195 410.241 299.254 410.403V410.403Z" fill="#333333"/>
<path d="M276.394 418.027C276.394 434.503 287.093 447.865 300.289 447.865C313.485 447.865 324.172 434.526 324.172 418.027C324.172 401.528 313.473 388.183 300.272 388.183C287.07 388.183 276.394 401.545 276.394 418.027ZM281.269 418.027C281.269 404.882 289.784 394.275 300.289 394.275C310.793 394.275 319.314 404.905 319.314 418.027C319.314 431.149 310.799 441.773 300.289 441.773C289.779 441.773 281.252 431.143 281.252 418.027H281.269Z" fill="black"/>
<path d="M281.252 418.027C281.252 431.143 289.767 441.773 300.272 441.773C310.776 441.773 319.297 431.143 319.297 418.027C319.297 404.911 310.782 394.275 300.272 394.275C289.762 394.275 281.252 404.905 281.252 418.027ZM285.172 418.027C285.172 407.608 291.933 399.167 300.272 399.167C308.61 399.167 315.376 407.608 315.376 418.027C315.376 428.445 308.616 436.887 300.272 436.887C291.928 436.887 285.172 428.44 285.172 418.027Z" fill="#828282"/>
<path d="M281.252 418.027C281.252 431.143 289.767 441.773 300.272 441.773C310.776 441.773 319.297 431.143 319.297 418.027C319.297 404.911 310.782 394.275 300.272 394.275C289.762 394.275 281.252 404.905 281.252 418.027ZM283.464 418.027C283.464 406.431 290.99 397.03 300.272 397.03C309.553 397.03 317.085 406.431 317.085 418.027C317.085 429.623 309.541 439.018 300.272 439.018C291.002 439.018 283.464 429.617 283.464 418.027Z" fill="#DEDEDE"/>
<path d="M281.252 418.027C281.252 431.143 289.767 441.773 300.272 441.773C310.776 441.773 319.297 431.143 319.297 418.027C319.297 404.911 310.782 394.275 300.272 394.275C289.762 394.275 281.252 404.905 281.252 418.027ZM297.826 410.5C297.9 411.918 296.683 413.038 295.608 412.512L284.589 407.094C284.421 406.981 284.303 406.808 284.258 406.61C284.214 406.413 284.246 406.205 284.349 406.031C285.62 403.518 287.336 401.257 289.413 399.356C291.408 397.5 293.792 396.114 296.391 395.298C296.757 395.19 297.088 395.481 297.111 395.921L297.826 410.5ZM316.114 407.443L305.255 412.792C304.198 413.312 302.969 412.22 303.038 410.78L303.758 396.024C303.758 395.572 304.123 395.281 304.495 395.401C306.965 396.236 309.23 397.584 311.142 399.356C313.319 401.351 315.103 403.738 316.399 406.391C316.496 406.568 316.523 406.775 316.473 406.97C316.423 407.165 316.301 407.334 316.131 407.443H316.114ZM313.216 433.583L305.787 422.313C305.061 421.216 305.529 419.416 306.632 419.056L318.114 415.358C318.457 415.244 318.788 415.564 318.811 416.038C318.954 419.117 318.633 422.199 317.857 425.182C317.097 428.168 315.83 431.002 314.113 433.56C314.073 433.642 314.012 433.711 313.935 433.759C313.859 433.808 313.771 433.835 313.68 433.838C313.59 433.84 313.5 433.818 313.421 433.773C313.343 433.728 313.278 433.662 313.233 433.583H313.216ZM292.413 438.224L298.7 425.908C298.817 425.641 299.009 425.415 299.252 425.255C299.496 425.096 299.78 425.011 300.072 425.011C300.363 425.011 300.647 425.096 300.891 425.255C301.135 425.415 301.326 425.641 301.443 425.908L307.827 438.378C307.922 438.557 307.943 438.766 307.886 438.96C307.83 439.154 307.7 439.318 307.524 439.418C305.218 440.554 302.677 441.131 300.107 441.103C297.536 441.075 295.009 440.443 292.728 439.258C292.554 439.158 292.426 438.994 292.371 438.801C292.316 438.608 292.337 438.401 292.431 438.224H292.413ZM282.681 425.154C281.869 422.041 281.555 418.82 281.749 415.609C281.778 415.147 282.103 414.838 282.446 414.952L293.768 418.604C294.871 418.958 295.339 420.764 294.619 421.862L287.087 433.292C287.041 433.37 286.974 433.435 286.895 433.478C286.815 433.522 286.725 433.543 286.634 433.54C286.543 433.536 286.455 433.508 286.378 433.458C286.302 433.409 286.241 433.339 286.201 433.258C284.593 430.767 283.404 428.029 282.681 425.154V425.154Z" fill="#808080"/>
<path d="M281.252 418.027C281.252 431.143 289.767 441.773 300.272 441.773C310.776 441.773 319.297 431.143 319.297 418.027C319.297 404.911 310.782 394.275 300.272 394.275C289.762 394.275 281.252 404.905 281.252 418.027ZM296.271 413.649L284.709 407.3C284.533 407.175 284.406 406.991 284.353 406.782C284.3 406.572 284.323 406.351 284.418 406.157C285.627 403.588 287.323 401.278 289.413 399.356C291.413 397.496 293.835 396.15 296.471 395.435C296.843 395.338 297.203 395.67 297.237 396.138L298.488 411.666C298.608 413.146 297.385 414.261 296.271 413.649V413.649ZM316.005 407.666L304.575 413.952C303.432 414.569 302.238 413.449 302.358 411.94L303.638 396.235C303.672 395.755 304.038 395.43 304.415 395.532C306.92 396.275 309.22 397.585 311.136 399.362C313.318 401.379 315.068 403.82 316.279 406.534C316.378 406.724 316.405 406.943 316.354 407.151C316.304 407.359 316.18 407.542 316.005 407.666V407.666ZM313.033 433.515L304.724 421.896C303.918 420.753 304.386 418.958 305.575 418.633L317.914 415.289C318.291 415.192 318.651 415.524 318.685 415.998C318.907 419.071 318.625 422.16 317.851 425.142C317.095 428.145 315.783 430.979 313.982 433.498C313.93 433.576 313.86 433.64 313.777 433.684C313.695 433.729 313.603 433.753 313.509 433.753C313.415 433.754 313.323 433.731 313.24 433.688C313.157 433.644 313.086 433.581 313.033 433.503V433.515ZM292.431 437.955L298.717 424.496C298.816 424.211 299.001 423.964 299.247 423.789C299.493 423.614 299.787 423.52 300.089 423.52C300.39 423.52 300.685 423.614 300.93 423.789C301.176 423.964 301.361 424.211 301.46 424.496L307.827 438.127C307.923 438.322 307.946 438.545 307.89 438.755C307.835 438.965 307.704 439.148 307.524 439.27C305.248 440.506 302.693 441.139 300.104 441.109C297.514 441.079 294.974 440.387 292.728 439.098C292.548 438.976 292.419 438.793 292.365 438.583C292.31 438.372 292.333 438.15 292.431 437.955V437.955ZM282.681 425.154C281.869 422.024 281.596 418.779 281.875 415.558C281.921 415.089 282.281 414.764 282.646 414.866L294.842 418.17C296.031 418.49 296.5 420.296 295.688 421.427L287.281 433.189C287.229 433.269 287.158 433.335 287.074 433.381C286.991 433.426 286.897 433.45 286.801 433.45C286.706 433.45 286.612 433.426 286.528 433.381C286.444 433.335 286.373 433.269 286.321 433.189C284.639 430.749 283.406 428.027 282.681 425.154V425.154Z" fill="url(#paint1_radial_6_321)"/>
<path d="M300.272 421.09C301.626 421.09 302.723 419.719 302.723 418.027C302.723 416.335 301.626 414.964 300.272 414.964C298.918 414.964 297.82 416.335 297.82 418.027C297.82 419.719 298.918 421.09 300.272 421.09Z" fill="#E6E6E6"/>
<path d="M299.66 410.803H300.889L301.506 412.135L300.889 413.472H299.66L299.043 412.135L299.66 410.803Z" fill="#333333"/>
<path d="M299.906 411.346H300.643L301.009 412.135L300.643 412.929H299.906L299.54 412.135L299.906 411.346Z" fill="black"/>
<path d="M305.587 415.061L305.964 416.524L305.141 417.667L303.935 417.347L303.552 415.884L304.381 414.741L305.587 415.061Z" fill="#333333"/>
<path d="M305.249 415.524L305.478 416.393L304.987 417.073L304.266 416.884L304.044 416.015L304.535 415.335L305.249 415.524Z" fill="black"/>
<path d="M304.175 423.416L303.175 424.319L302.049 423.696L301.918 422.165L302.918 421.256L304.044 421.885L304.175 423.416Z" fill="#333333"/>
<path d="M303.718 423.159L303.123 423.696L302.455 423.325L302.375 422.416L302.969 421.879L303.638 422.25L303.718 423.159Z" fill="black"/>
<path d="M297.374 424.319L296.374 423.416L296.505 421.885L297.631 421.256L298.631 422.165L298.5 423.696L297.374 424.319Z" fill="#333333"/>
<path d="M297.425 423.696L296.831 423.159L296.911 422.25L297.58 421.879L298.174 422.416L298.094 423.325L297.425 423.696Z" fill="black"/>
<path d="M294.585 416.524L294.962 415.061L296.168 414.741L296.997 415.884L296.614 417.347L295.408 417.667L294.585 416.524Z" fill="#333333"/>
<path d="M295.071 416.393L295.299 415.524L296.014 415.335L296.505 416.015L296.277 416.884L295.562 417.073L295.071 416.393Z" fill="black"/>
<path fill-rule="evenodd" clip-rule="evenodd" d="M399.914 334.593H386.495C386.039 334.593 385.586 334.524 385.152 334.387L381.225 333.181V328.695L384.506 322.831C384.904 322.121 385.485 321.529 386.188 321.118C386.891 320.707 387.692 320.492 388.506 320.494H399.936C401.149 320.494 402.312 320.976 403.169 321.833C404.027 322.69 404.508 323.853 404.508 325.066V330.044C404.505 330.644 404.384 331.238 404.152 331.792C403.919 332.345 403.58 332.848 403.153 333.27C402.726 333.692 402.221 334.027 401.665 334.254C401.109 334.481 400.514 334.596 399.914 334.593Z" fill="black"/>
<path fill-rule="evenodd" clip-rule="evenodd" d="M386.495 334.593C386.039 334.593 385.586 334.524 385.152 334.387L381.225 333.181V328.695L384.506 322.831C384.904 322.121 385.485 321.529 386.188 321.118C386.891 320.707 387.692 320.492 388.506 320.494H392.473C391.658 320.492 390.858 320.707 390.154 321.118C389.451 321.529 388.87 322.121 388.472 322.831L385.192 328.695V333.181L389.124 334.387C389.556 334.524 390.007 334.593 390.461 334.593H386.495Z" fill="#4D4D4D"/>
<path d="M220.661 284.906V337.816H399.691L359.114 284.906H220.661ZM316.514 287.65H354.627L373.236 311.39V335.085H316.514V287.65Z" fill="#333333"/>
<path d="M263.158 319.974C265.701 321.34 279.634 333.547 279.634 333.547C286.964 334.375 294.347 334.639 301.717 334.336L302.86 339.137C291.51 340.914 280.206 342.131 279.126 341.994C278.368 341.964 277.621 341.81 276.914 341.537C276.497 341.268 260.729 334.37 258.946 330.027C257.409 326.266 258.472 317.454 263.158 319.974Z" fill="#414042"/>
<path d="M301.717 334.336C301.717 334.336 303.466 330.724 305.061 329.998C306.655 329.272 310.381 330.158 311.347 330.244C312.313 330.33 314.056 334.644 313.485 335.479C312.913 336.313 309.301 338.559 308.576 338.908C307.85 339.256 302.889 339.125 302.889 339.125L301.717 334.336Z" fill="#FED0B8"/>
<path d="M246.676 316.345C246.676 316.345 241.829 317.671 238.966 318.848C236.103 320.025 236.143 326.043 235.331 335.393C234.52 344.743 234.794 356.567 234.794 356.567C238.92 357.151 243.081 357.446 247.247 357.447C250.938 357.471 254.626 357.255 258.289 356.802C258.26 349.183 260.323 338.388 261.409 333.993C262.329 331.707 264.684 321.191 263.158 319.997C261.632 318.802 258.655 317.768 258.655 317.768L246.676 316.345Z" fill="black"/>
<path d="M258.706 322.889L255.848 320.031L255.431 325.426L253.145 325.472L253.34 319.928L250.031 322.98L246.676 316.345L249.27 315.105L257.317 316.316L258.672 317.745L258.706 322.889Z" fill="white"/>
<path d="M259.437 309.51L257.3 316.316L255.643 318.974L253.677 319.099L249.253 315.099L251.539 308.475L259.437 309.51Z" fill="#FED0B8"/>
<path d="M251.539 308.481C251.631 311.87 253.351 314.676 257.294 316.316L259.437 309.51L251.539 308.481Z" fill="#FEB087"/>
<path d="M270.976 300.851C269.592 300.048 268.053 299.546 266.461 299.377C265.438 299.303 261.746 299.651 261.746 299.651C263.078 296.748 270.05 295.142 270.976 300.851Z" fill="#173F5C"/>
<path d="M248.105 306.509C246.321 302.509 246.219 297.445 246.607 297.022C247.238 296.511 248.009 296.204 248.819 296.142C253.711 288.461 264.044 291.57 265.644 297.285C266.106 299.041 266.059 300.893 265.507 302.623L248.105 306.509Z" fill="#654E3B"/>
<path d="M265.381 298.285C265.381 298.285 265.701 300.96 265.701 301.457C265.701 301.954 265.518 304.766 265.427 306.761C265.335 308.755 265.564 309.978 265.244 311.43C264.924 312.881 261.981 315.236 260.941 315.779C260.375 316.028 259.762 316.154 259.144 316.146C258.526 316.138 257.916 315.997 257.357 315.733C256.18 315.236 252.385 312.304 251.694 309.121C250.836 305.12 251.648 303.452 251.648 302.771C251.374 302.152 251.225 301.486 251.209 300.809C251.193 300.132 251.311 299.459 251.556 298.828C251.876 298.257 254.231 298.194 256.997 298.605C259.763 299.017 262.935 299.011 265.381 298.285Z" fill="#FED0B8"/>
<path d="M256.546 312.224C256.485 311.953 256.439 311.678 256.408 311.401C258.358 311.661 260.334 311.641 262.278 311.344C262.218 311.564 262.146 311.779 262.061 311.99C261.227 312.149 260.383 312.25 259.535 312.293C258.538 312.347 257.539 312.324 256.546 312.224V312.224Z" fill="white"/>
<path d="M260.1 313.499C260.259 313.673 260.397 313.864 260.512 314.07C259.089 315.15 257.3 314.944 256.62 312.487C257.237 312.39 258.963 312.224 260.1 313.499Z" fill="#D26E6C"/>
<path d="M259.535 312.264C260.383 312.221 261.227 312.12 262.061 311.961C261.743 312.793 261.208 313.525 260.512 314.082C260.397 313.876 260.259 313.684 260.1 313.51C258.957 312.236 257.243 312.401 256.62 312.51C256.62 312.413 256.569 312.31 256.546 312.207C257.539 312.303 258.538 312.322 259.535 312.264V312.264Z" fill="#A0281E"/>
<path d="M256.997 298.605C259.763 299.011 262.935 299.011 265.381 298.285V298.405C264.398 298.931 262.804 299.245 260.769 299.262C258.232 299.262 252.837 298.062 251.911 298.788C251.692 298.947 251.499 299.14 251.339 299.36C251.381 299.174 251.444 298.993 251.528 298.822C251.876 298.285 254.231 298.194 256.997 298.605Z" fill="#FD9C8C"/>
<path d="M254.271 305.938C254.271 306.663 254.671 307.252 255.157 307.252C255.643 307.252 256.043 306.681 256.043 305.938C256.043 305.195 255.643 304.629 255.157 304.629C254.671 304.629 254.271 305.235 254.271 305.938Z" fill="#492117"/>
<path d="M261.918 305.938C261.918 306.663 262.318 307.252 262.804 307.252C263.289 307.252 263.689 306.681 263.689 305.938C263.689 305.195 263.289 304.629 262.804 304.629C262.318 304.629 261.918 305.235 261.918 305.938Z" fill="#492117"/>
<path d="M256.689 302.857C255.335 302.803 253.982 302.981 252.688 303.383C252.877 302.957 253.214 302.613 253.637 302.417C254.396 302.141 255.184 301.949 255.986 301.846C256.191 301.857 256.517 302.194 256.689 302.857Z" fill="#492117"/>
<path d="M262.432 303.046C263.322 302.957 264.22 303.085 265.05 303.417C264.968 303.146 264.828 302.896 264.638 302.686C264.183 302.415 263.674 302.248 263.147 302.194C262.678 302.211 262.432 303.046 262.432 303.046Z" fill="#492117"/>
<path d="M261.232 305.783C261.58 307.013 262.162 308.163 262.947 309.172C263.381 309.784 261.958 310.59 260.781 310.887C261.872 310.03 261.924 309.641 261.781 309.172C261.431 308.076 261.246 306.934 261.232 305.783V305.783Z" fill="#FD9C8C"/>
<path d="M251.471 305.675C251.128 305.017 249.568 304.452 248.407 305.246C247.247 306.04 247.836 308.675 249.133 309.549C250.431 310.424 251.625 310.121 251.945 309.687L251.471 305.675Z" fill="#FED0B8"/>
<path d="M250.602 306.258C250.432 306.039 250.196 305.881 249.929 305.808C249.662 305.735 249.378 305.75 249.12 305.852C248.863 305.954 248.645 306.136 248.5 306.372C248.355 306.608 248.29 306.885 248.316 307.161C248.379 308.584 249.67 309.475 250.693 309.178C251.716 308.881 251.385 307.224 250.602 306.258Z" fill="#FD9C8C"/>
<path d="M246.561 301.497C249.175 300.772 251.856 300.314 254.563 300.131C262.975 296.576 266.53 297.188 266.53 297.188C266.484 295.632 266.208 294.091 265.713 292.616C264.958 290.77 259.832 288.101 255.523 288.512C251.214 288.924 246.767 292.136 246.087 295.148C245.533 297.502 246.561 301.497 246.561 301.497Z" fill="#D1D3D4"/>
<path d="M251.631 300.445C252.557 296.119 259.009 293.976 263.524 294.045C268.039 294.113 271.216 297.851 271.725 300.405C271.931 301.428 271.113 301.548 270.839 300.714C270.639 300.097 270.222 297.125 266.05 297.462C261.878 297.799 262.049 301.56 260.032 301.908C258.014 302.257 255.82 300.794 251.631 300.445Z" fill="#414042"/>
<path d="M293.654 355.716C286.527 355.036 282.349 346.44 284.349 336.559C286.35 326.678 293.768 319.191 300.894 319.871C308.021 320.551 312.199 329.146 310.199 339.028C308.198 348.909 300.78 356.396 293.654 355.716ZM300.82 322.98C295.282 322.448 289.424 328.695 287.767 336.885C286.11 345.074 289.27 352.184 294.814 352.715C300.357 353.247 306.215 347 307.873 338.805C309.53 330.61 306.364 323.506 300.82 322.98Z" fill="#4D4D4D"/>
<path d="M309.193 332.261L300.232 335.782L289.093 330.341L288.419 333.667L296.723 340.274L293.665 353.11L295.762 353.316L301.203 340.702L308.524 335.582L309.193 332.261Z" fill="#4D4D4D"/>
<path d="M362.92 327.546H300.923C299.267 327.514 297.647 328.037 296.321 329.031C294.996 330.025 294.041 331.434 293.608 333.033L291.413 341.8H402.285L378.494 330.941C373.605 328.71 368.294 327.552 362.92 327.546Z" fill="black"/>
<path d="M320.834 301.943H343.626C345.469 301.943 346.964 300.448 346.964 298.605V294.89C346.964 293.047 345.469 291.553 343.626 291.553H320.834C318.991 291.553 317.497 293.047 317.497 294.89V298.605C317.497 300.448 318.991 301.943 320.834 301.943Z" fill="black"/>
<path d="M331.127 293.141H333.322V287.169H331.127V293.141Z" fill="black"/>
<path opacity="0.75" d="M399.691 337.816H306.724L274.142 284.906H359.108L399.691 337.816Z" fill="#1A1A1A"/>
<path d="M278.2 287.169H357.994L395.096 335.547H307.993L278.2 287.169V287.169ZM274.142 284.883L306.718 337.793H399.691L359.114 284.883H274.142Z" fill="black"/>
<path d="M23.0114 390.109V405.951C23.0114 411.558 30.441 424.811 40.4995 424.811H60.1993C56.273 372.192 114.144 371.661 118.55 424.811H274.028C274.028 424.811 269.21 385.148 299.826 385.148C330.441 385.148 327.967 426.817 336.785 426.817H427.843C433.895 426.817 441.142 419.959 442.788 415.907C444.434 411.855 444.502 397.561 443.982 396.253C443.462 394.944 442.565 394.287 440.993 393.395V386.766C441.11 378.76 439.326 370.841 435.787 363.66C434.644 361.602 419.83 347.44 399.691 337.805H306.724L274.148 284.895H359.108C359.108 284.895 340.82 259 317.491 259H50.2436C29.5437 259 25.7603 311.35 25.7603 385.446C25.7603 385.457 23.0114 387.92 23.0114 390.109ZM220.655 284.906H268.313L296.111 337.816H220.672L220.655 284.906Z" fill="#F1F1F1"/>
<path d="M318.983 393.412C329.927 405.562 330.47 426.817 336.768 426.817H427.843C433.901 426.817 441.148 419.959 442.794 415.907C444.44 411.855 444.508 397.561 443.988 396.253C443.468 394.944 442.565 394.287 440.999 393.395L318.983 393.412Z" fill="#333333"/>
<path d="M392.77 391.172H426.489C427.618 391.174 428.708 390.759 429.549 390.005C430.39 389.252 430.922 388.214 431.043 387.091L432.249 375.147C432.3 374.654 432.246 374.155 432.092 373.684C431.937 373.213 431.686 372.78 431.354 372.412C431.021 372.044 430.615 371.75 430.162 371.548C429.709 371.347 429.219 371.243 428.723 371.244H379.002C378.445 371.243 377.898 371.391 377.417 371.673C376.937 371.956 376.541 372.361 376.27 372.848C376 373.335 375.864 373.886 375.878 374.443C375.892 375 376.055 375.543 376.35 376.016L382.123 385.251C383.25 387.059 384.819 388.552 386.681 389.587C388.544 390.623 390.639 391.168 392.77 391.172Z" fill="black"/>
<path d="M376.67 388.183C370.704 371.175 357.176 363.037 334.951 365.014C334.951 370.209 337.179 379.633 344.14 384.108C351.101 388.583 363.669 389.063 376.67 388.183Z" fill="black"/>
<path d="M386.952 408.957H427.157C429.035 408.957 430.558 407.435 430.558 405.557V403.242C430.558 401.364 429.035 399.842 427.157 399.842H386.952C385.074 399.842 383.551 401.364 383.551 403.242V405.557C383.551 407.435 385.074 408.957 386.952 408.957Z" fill="#4D4D4D"/>
<path d="M362.64 408.957H370.012C371.774 408.957 373.201 407.53 373.201 405.768V403.031C373.201 401.27 371.774 399.842 370.012 399.842H362.64C360.879 399.842 359.451 401.27 359.451 403.031V405.768C359.451 407.53 360.879 408.957 362.64 408.957Z" fill="#FBB03B"/>
<g style="mix-blend-mode:multiply" opacity="0.5">
<path d="M433.495 369.946H367.601L367.521 369.872C360.405 363.66 349.49 361.048 334.991 362.094H334.859L334.768 361.997C326.197 353.08 316.747 345.052 306.564 338.033C306.533 338.012 306.507 337.986 306.487 337.955C306.467 337.923 306.454 337.889 306.447 337.852C306.44 337.816 306.441 337.779 306.449 337.743C306.457 337.707 306.471 337.672 306.492 337.642C306.513 337.611 306.54 337.586 306.571 337.565C306.602 337.545 306.637 337.532 306.673 337.525C306.71 337.518 306.747 337.519 306.783 337.527C306.819 337.535 306.853 337.549 306.884 337.57C317.064 344.583 326.511 352.603 335.082 361.511C349.615 360.476 360.623 363.117 367.812 369.352H432.929C433.027 367.512 434.381 364.911 435.347 363.728C435.397 363.678 435.464 363.649 435.535 363.645C435.605 363.642 435.675 363.665 435.73 363.709C435.784 363.754 435.821 363.818 435.831 363.888C435.842 363.958 435.826 364.029 435.787 364.088C434.798 365.288 433.449 367.986 433.501 369.632L433.495 369.946Z" fill="#808080"/>
</g>
<path d="M239.086 357.287H227.908C227.207 357.287 226.536 357.009 226.04 356.514C225.545 356.019 225.267 355.347 225.267 354.647V352.904C225.267 352.601 225.388 352.31 225.602 352.096C225.816 351.881 226.107 351.761 226.41 351.761H240.561C240.864 351.761 241.155 351.881 241.369 352.096C241.583 352.31 241.704 352.601 241.704 352.904V354.647C241.704 355.343 241.429 356.011 240.938 356.506C240.448 357 239.782 357.281 239.086 357.287Z" fill="black"/>
<g style="mix-blend-mode:multiply" opacity="0.5">
<path d="M202.796 332.261V343.44C202.796 344.14 202.517 344.812 202.022 345.307C201.527 345.802 200.856 346.08 200.155 346.08H198.412C198.109 346.08 197.818 345.96 197.604 345.745C197.39 345.531 197.269 345.24 197.269 344.937V330.77C197.269 330.466 197.39 330.176 197.604 329.961C197.818 329.747 198.109 329.627 198.412 329.627H200.167C200.864 329.63 201.532 329.908 202.024 330.402C202.517 330.896 202.794 331.564 202.796 332.261Z" fill="#808080"/>
</g>
<g style="mix-blend-mode:multiply" opacity="0.5">
<path d="M211.077 420.004H129.832C128.132 420.001 126.504 419.325 125.303 418.122C124.102 416.92 123.426 415.291 123.425 413.592V284.752C123.426 283.053 124.102 281.425 125.303 280.223C126.504 279.022 128.133 278.347 129.832 278.345H211.077V420.004ZM129.832 278.911C128.283 278.914 126.799 279.53 125.705 280.625C124.61 281.72 123.994 283.204 123.991 284.752V413.592C123.992 415.141 124.608 416.626 125.703 417.722C126.798 418.818 128.282 419.435 129.832 419.439H210.511V278.911H129.832Z" fill="#808080"/>
</g>
<g style="mix-blend-mode:multiply">
<path d="M45.9231 404.402H59.1477C59.7706 400.179 62.8739 394.532 66.3144 391.172H45.9231V404.402Z" fill="#E6E6E6"/>
</g>
<g style="mix-blend-mode:multiply">
<g style="mix-blend-mode:multiply">
<path d="M123.711 404.402H210.797V391.172H123.711V404.402Z" fill="#E6E6E6"/>
</g>
<g style="mix-blend-mode:multiply">
<path d="M116.641 404.402H123.705V391.172H107.491C111.707 394.65 114.874 399.23 116.641 404.402V404.402Z" fill="#E6E6E6"/>
</g>
<g style="mix-blend-mode:multiply">
<path d="M210.791 404.402H272.222C273.102 399.83 275.217 394.744 278.509 391.172H210.791V404.402Z" fill="#E6E6E6"/>
</g>
</g>
<path d="M54.7757 424.811H40.4881C30.401 424.811 23 411.586 23 405.951V390.109C23 387.92 25.7489 385.457 25.7489 385.457H33.2871C35.8547 385.457 38.3172 386.477 40.1328 388.292C41.9484 390.108 42.9684 392.57 42.9684 395.138V403.922C42.9681 409.546 45.1644 414.948 49.0892 418.976L54.8043 424.799L54.7757 424.811Z" fill="#333333"/>
<g style="mix-blend-mode:multiply" opacity="0.5">
<path d="M271.291 420.004H220.387V337.53H296.397V382.142L296.162 382.182C279.234 385.12 270.868 397.75 271.285 419.713L271.291 420.004ZM220.941 419.433H270.713C270.37 397.424 278.817 384.714 295.831 381.662V338.096H220.958L220.941 419.433Z" fill="#808080"/>
</g>
<path d="M388.198 432.423H427.357V417.175H388.198V432.423Z" fill="#F2F2F2"/>
<g style="mix-blend-mode:multiply" opacity="0.2">
<path d="M266.884 276.791C266.673 276.789 266.469 276.71 266.313 276.568C259.003 269.78 249.393 266.013 239.418 266.024H54.7757C54.5483 266.024 54.3303 265.933 54.1695 265.773C54.0088 265.612 53.9184 265.394 53.9184 265.166C53.9184 264.939 54.0088 264.721 54.1695 264.56C54.3303 264.399 54.5483 264.309 54.7757 264.309H239.418C249.819 264.299 259.839 268.223 267.467 275.293C267.631 275.449 267.727 275.662 267.736 275.887C267.744 276.112 267.664 276.332 267.513 276.499C267.433 276.588 267.337 276.66 267.229 276.71C267.121 276.76 267.003 276.788 266.884 276.791V276.791Z" fill="#808080"/>
</g>
<path d="M238.709 318.876C236.697 319.785 235.526 320.631 232.171 325.769C228.119 331.992 223.187 339.376 223.656 343.434C223.873 345.303 225.742 345.766 226.759 345.72C233.88 345.383 241.132 340.937 247.967 338.736L246.676 334.33C241.229 335.319 238.143 335.696 237.229 335.547C237.229 335.547 238.498 334.37 240.966 331.604C243.281 328.992 243.441 316.733 238.709 318.876Z" fill="black"/>
<path d="M237.212 335.547C232.502 335.393 229.102 336.119 227.222 337.833C227.527 337.106 228.011 336.467 228.63 335.978C229.248 335.488 229.981 335.163 230.759 335.033C233.6 334.462 237.212 335.547 237.212 335.547Z" fill="#737373"/>
<path d="M253.802 332.313C253.802 332.313 257.494 332.273 257.803 332.57C258.112 332.867 258.58 335.016 258.58 335.016L253.802 332.313Z" fill="#FEB087"/>
<path d="M246.676 334.33C244.521 335.73 245.31 338.736 247.985 338.736C248.932 338.612 249.847 338.309 250.682 337.845C252.231 336.702 253.5 335.559 254.363 335.559H259.358C259.358 335.559 254.871 332.433 253.82 332.324C252.768 332.215 246.676 334.33 246.676 334.33Z" fill="#FED0B8"/>
<path fill-rule="evenodd" clip-rule="evenodd" d="M260.741 334.593H276.171C276.694 334.592 277.214 334.513 277.714 334.359L282.241 332.964V327.821L278.463 321.065C278.009 320.252 277.345 319.574 276.542 319.101C275.738 318.629 274.823 318.38 273.891 318.379H260.746C260.057 318.379 259.374 318.514 258.737 318.777C258.1 319.04 257.521 319.427 257.033 319.914C256.545 320.401 256.158 320.98 255.894 321.617C255.63 322.254 255.494 322.936 255.494 323.626V329.341C255.494 330.733 256.047 332.068 257.03 333.053C258.014 334.037 259.349 334.591 260.741 334.593V334.593Z" fill="black"/>
<path fill-rule="evenodd" clip-rule="evenodd" d="M260.741 318.362C260.051 318.361 259.368 318.497 258.731 318.76C258.094 319.023 257.515 319.409 257.027 319.897C256.539 320.384 256.152 320.963 255.888 321.599C255.624 322.236 255.488 322.919 255.488 323.609V329.324C255.488 330.717 256.042 332.052 257.027 333.037C258.012 334.022 259.348 334.576 260.741 334.576H264.655C263.262 334.576 261.927 334.022 260.942 333.037C259.957 332.052 259.403 330.717 259.403 329.324V323.609C259.403 322.919 259.539 322.236 259.803 321.599C260.067 320.963 260.454 320.384 260.942 319.897C261.43 319.409 262.009 319.023 262.646 318.76C263.283 318.497 263.966 318.361 264.655 318.362H260.741Z" fill="#4D4D4D"/>
<defs>
<radialGradient id="paint0_radial_6_321" cx="0" cy="0" r="1" gradientUnits="userSpaceOnUse" gradientTransform="translate(85.3874 418.027) scale(25.3328 19.7912)">
<stop stop-color="#B3B3B3"/>
<stop offset="0.13" stop-color="#B7B7B7"/>
<stop offset="0.27" stop-color="#C5C5C5"/>
<stop offset="0.42" stop-color="#DBDBDB"/>
<stop offset="0.58" stop-color="#F9F9F9"/>
<stop offset="0.6" stop-color="white"/>
<stop offset="1" stop-color="#B3B3B3"/>
</radialGradient>
<radialGradient id="paint1_radial_6_321" cx="0" cy="0" r="1" gradientUnits="userSpaceOnUse" gradientTransform="translate(298.349 418.027) scale(25.3328 19.7912)">
<stop stop-color="#B3B3B3"/>
<stop offset="0.13" stop-color="#B7B7B7"/>
<stop offset="0.27" stop-color="#C5C5C5"/>
<stop offset="0.42" stop-color="#DBDBDB"/>
<stop offset="0.58" stop-color="#F9F9F9"/>
<stop offset="0.6" stop-color="white"/>
<stop offset="1" stop-color="#B3B3B3"/>
</radialGradient>
</defs>
</svg>
